*******************************************************************************
                              My Pure Joy (2011)
*******************************************************************************

-------------------------------------------------------------------------------
                              General Information
-------------------------------------------------------------------------------
Type.................: Movie



Video Format.........: AVI
Video Bitrate........: 2196
Resolution...........: 720 x 404
Color................: 8 bit
FPS..................: 29.97
Source...............: DVD 16x9
Original Format......: NTSC
Genre................: Horror
IMDb Rating..........: 4.9
Movie Information....: http://www.imdb.com/title/tt1909807

-------------------------------------------------------------------------------
                               Post Information
-------------------------------------------------------------------------------
Posted by............: RadioResearch
Posted on............: 2/3/2013

-------------------------------------------------------------------------------
                                 Release Notes
-------------------------------------------------------------------------------
On the outside Adam appears to be a normal teenager, but underneath...his mind 
has been so rotted by trauma from his past and the gory films he watches, that 
he has blurred the lines between reality and pretend! This prompts Adam to start 
killing people in similar ways to films he watches, making sure to put his own 
little spin on it. 

Enjoy!

RadioResearch

1.  Please vote on IMDB and rate the movies I post.
2.  Please seed as much as you can; don't leech and run.
3.  A thank you now and then would be greatly appreciated.

General
Complete name                            : G:AVIMy Pure Joy 
(2011)MY_PURE_JOY_Title1.avi
Format                                   : AVI
Format/Info                              : Audio Video Interleave
Format profile                           : OpenDML
File size                                : 1.59 GiB
Duration                                 : 1h 43mn
Overall bit rate                         : 2 196 Kbps
Movie name                               : MY_PURE_JOY
Director                                 : James_Cullen_Bressack
Genre                                    : Horror
Writing application                      : MEncoder 5.0
Writing library                          : [= DigiArty videodll! =]

Video
ID                                       : 0
Format                                   : MPEG-4 Visual
Format profile                           : Simple@L1
Format settings, BVOP                    : No
Format settings, QPel                    : No
Format settings, GMC                     : No warppoints
Format settings, Matrix                  : Default (H.263)
Codec ID                                 : DX50
Codec ID/Hint                            : DivX 5
Duration                                 : 1h 43mn
Bit rate                                 : 1 998 Kbps
Width                                    : 720 pixels
Height                                   : 404 pixels
Display aspect ratio                     : 16:9
Frame rate                               : 29.970 fps
Color space                              : YUV
Chroma subsampling                       : 4:2:0
Bit depth                                : 8 bits
Scan type                                : Progressive
Compression mode                         : Lossy
Bits/(Pixel*Frame)                       : 0.229
Stream size                              : 1.45 GiB (91%)
Writing library                          : Lavc54.71.100

Audio
ID                                       : 1
Format                                   : AC-3
Format/Info                              : Audio Coding 3
Mode extension                           : CM (complete main)
Format settings, Endianness              : Big
Codec ID                                 : 2000
Duration                                 : 1h 43mn
Bit rate mode                            : Constant
Bit rate                                 : 192 Kbps
Channel(s)                               : 2 channels
Channel positions                        : Front: L R
Sampling rate                            : 48.0 KHz
Bit depth                                : 16 bits
Compression mode                         : Lossy
Stream size                              : 142 MiB (9%)
Alignment                                : Split accross interleaves
Interleave, duration                     : 500 ms (14.98 video frames)
Interleave, preload duration             : 500 ms



-------------------------------------------------------------------------------
Generated with Cool NFO Creator - http://fly.to/coolbeans
-------------------------------------------------------------------------------
